<mxfile host="app.diagrams.net" modified="2024-01-15T13:19:44.201Z" agent="Mozilla/5.0 (Windows NT 10.0; Win64; x64) AppleWebKit/537.36 (KHTML, like Gecko) Chrome/114.0.0.0 Safari/537.36 Edg/114.0.1823.51" version="22.1.18" etag="0lDjBnUaawj2SNB4f-DJ" type="github">
  <diagram name="Page-1" id="Sq8HsA9wRh4gDkjzc9XP">
    <mxGraphModel dx="2234" dy="388" grid="0" gridSize="10" guides="1" tooltips="1" connect="1" arrows="1" fold="1" page="0" pageScale="1" pageWidth="850" pageHeight="1100" math="0" shadow="0">
      <root>
        <mxCell id="0" />
        <mxCell id="1" parent="0" />
        <mxCell id="CLiznRAJ8AVNZW-D-ACl-26" value="" style="edgeStyle=orthogonalEdgeStyle;rounded=0;orthogonalLoop=1;jettySize=auto;html=1;movable=1;resizable=1;rotatable=1;deletable=1;editable=1;connectable=1;locked=0;" parent="1" source="CLiznRAJ8AVNZW-D-ACl-25" target="CLiznRAJ8AVNZW-D-ACl-1" edge="1">
          <mxGeometry relative="1" as="geometry" />
        </mxCell>
        <mxCell id="8sGk-XpS2pYoh8tglQyW-2" value="" style="rounded=0;whiteSpace=wrap;html=1;dashed=1;movable=1;resizable=1;rotatable=1;deletable=1;editable=1;connectable=1;locked=0;" vertex="1" parent="1">
          <mxGeometry x="-354" y="618" width="1236" height="509" as="geometry" />
        </mxCell>
        <mxCell id="8sGk-XpS2pYoh8tglQyW-3" value="" style="rounded=0;whiteSpace=wrap;html=1;dashed=0;movable=1;resizable=1;rotatable=1;deletable=1;editable=1;connectable=1;locked=0;" vertex="1" parent="1">
          <mxGeometry x="-337" y="648.5" width="228" height="448" as="geometry" />
        </mxCell>
        <mxCell id="8sGk-XpS2pYoh8tglQyW-5" value="" style="rounded=0;whiteSpace=wrap;html=1;dashed=0;movable=1;resizable=1;rotatable=1;deletable=1;editable=1;connectable=1;locked=0;" vertex="1" parent="1">
          <mxGeometry x="4" y="648.5" width="266" height="448" as="geometry" />
        </mxCell>
        <mxCell id="8sGk-XpS2pYoh8tglQyW-6" value="" style="rounded=0;whiteSpace=wrap;html=1;dashed=0;movable=1;resizable=1;rotatable=1;deletable=1;editable=1;connectable=1;locked=0;" vertex="1" parent="1">
          <mxGeometry x="683" y="648.5" width="182" height="448" as="geometry" />
        </mxCell>
        <mxCell id="8sGk-XpS2pYoh8tglQyW-7" value="" style="rounded=0;whiteSpace=wrap;html=1;dashed=0;movable=1;resizable=1;rotatable=1;deletable=1;editable=1;connectable=1;locked=0;" vertex="1" parent="1">
          <mxGeometry x="366" y="648.5" width="271" height="112" as="geometry" />
        </mxCell>
        <mxCell id="8sGk-XpS2pYoh8tglQyW-8" value="" style="edgeStyle=orthogonalEdgeStyle;rounded=0;orthogonalLoop=1;jettySize=auto;html=1;" edge="1" parent="1" source="CLiznRAJ8AVNZW-D-ACl-1" target="CLiznRAJ8AVNZW-D-ACl-30">
          <mxGeometry relative="1" as="geometry" />
        </mxCell>
        <mxCell id="CLiznRAJ8AVNZW-D-ACl-1" value="NGINX" style="rounded=1;whiteSpace=wrap;html=1;movable=1;resizable=1;rotatable=1;deletable=1;editable=1;connectable=1;locked=0;" parent="1" vertex="1">
          <mxGeometry x="-285" y="736" width="120" height="60" as="geometry" />
        </mxCell>
        <mxCell id="CLiznRAJ8AVNZW-D-ACl-25" value="" style="rounded=0;whiteSpace=wrap;html=1;dashed=1;movable=1;resizable=1;rotatable=1;deletable=1;editable=1;connectable=1;locked=0;" parent="1" vertex="1">
          <mxGeometry x="-302.5" y="850" width="155" height="150" as="geometry" />
        </mxCell>
        <mxCell id="CLiznRAJ8AVNZW-D-ACl-29" value="Web Server" style="rounded=1;whiteSpace=wrap;html=1;movable=1;resizable=1;rotatable=1;deletable=1;editable=1;connectable=1;locked=0;" parent="1" vertex="1">
          <mxGeometry x="-293" y="857" width="138" height="27" as="geometry" />
        </mxCell>
        <mxCell id="CLiznRAJ8AVNZW-D-ACl-30" value="Load Balancer" style="rounded=1;whiteSpace=wrap;html=1;movable=1;resizable=1;rotatable=1;deletable=1;editable=1;connectable=1;locked=0;" parent="1" vertex="1">
          <mxGeometry x="-294" y="892" width="138" height="27" as="geometry" />
        </mxCell>
        <mxCell id="CLiznRAJ8AVNZW-D-ACl-31" value="Reverse Proxy" style="rounded=1;whiteSpace=wrap;html=1;movable=1;resizable=1;rotatable=1;deletable=1;editable=1;connectable=1;locked=0;" parent="1" vertex="1">
          <mxGeometry x="-294" y="927" width="138" height="27" as="geometry" />
        </mxCell>
        <mxCell id="CLiznRAJ8AVNZW-D-ACl-32" value="Content Caching" style="rounded=1;whiteSpace=wrap;html=1;movable=1;resizable=1;rotatable=1;deletable=1;editable=1;connectable=1;locked=0;" parent="1" vertex="1">
          <mxGeometry x="-294" y="962" width="138" height="27" as="geometry" />
        </mxCell>
        <mxCell id="8sGk-XpS2pYoh8tglQyW-9" value="UnderTow" style="rounded=1;whiteSpace=wrap;html=1;movable=1;resizable=1;rotatable=1;deletable=1;editable=1;connectable=1;locked=0;" vertex="1" parent="1">
          <mxGeometry x="23" y="993" width="228" height="31" as="geometry" />
        </mxCell>
        <mxCell id="8sGk-XpS2pYoh8tglQyW-10" value="ActiveMQ" style="rounded=1;whiteSpace=wrap;html=1;movable=1;resizable=1;rotatable=1;deletable=1;editable=1;connectable=1;locked=0;" vertex="1" parent="1">
          <mxGeometry x="23" y="1041" width="228" height="31" as="geometry" />
        </mxCell>
        <mxCell id="8sGk-XpS2pYoh8tglQyW-11" value="Spring Boot" style="rounded=1;whiteSpace=wrap;html=1;movable=1;resizable=1;rotatable=1;deletable=1;editable=1;connectable=1;locked=0;" vertex="1" parent="1">
          <mxGeometry x="77" y="688" width="120" height="60" as="geometry" />
        </mxCell>
        <mxCell id="8sGk-XpS2pYoh8tglQyW-12" value="Spring Boot" style="rounded=1;whiteSpace=wrap;html=1;movable=1;resizable=1;rotatable=1;deletable=1;editable=1;connectable=1;locked=0;" vertex="1" parent="1">
          <mxGeometry x="77" y="764" width="120" height="60" as="geometry" />
        </mxCell>
        <mxCell id="8sGk-XpS2pYoh8tglQyW-13" value="Spring Boot" style="rounded=1;whiteSpace=wrap;html=1;movable=1;resizable=1;rotatable=1;deletable=1;editable=1;connectable=1;locked=0;" vertex="1" parent="1">
          <mxGeometry x="77" y="836" width="120" height="60" as="geometry" />
        </mxCell>
        <mxCell id="8sGk-XpS2pYoh8tglQyW-14" value="Spring Boot" style="rounded=1;whiteSpace=wrap;html=1;movable=1;resizable=1;rotatable=1;deletable=1;editable=1;connectable=1;locked=0;" vertex="1" parent="1">
          <mxGeometry x="77" y="910.5" width="120" height="60" as="geometry" />
        </mxCell>
        <mxCell id="8sGk-XpS2pYoh8tglQyW-15" value="Redis&lt;br&gt;Slave1" style="shape=cylinder3;whiteSpace=wrap;html=1;boundedLbl=1;backgroundOutline=1;size=15;movable=1;resizable=1;rotatable=1;deletable=1;editable=1;connectable=1;locked=0;" vertex="1" parent="1">
          <mxGeometry x="471.5" y="665" width="60" height="83" as="geometry" />
        </mxCell>
        <mxCell id="8sGk-XpS2pYoh8tglQyW-16" value="Redis&lt;br&gt;Master" style="shape=cylinder3;whiteSpace=wrap;html=1;boundedLbl=1;backgroundOutline=1;size=15;movable=1;resizable=1;rotatable=1;deletable=1;editable=1;connectable=1;locked=0;" vertex="1" parent="1">
          <mxGeometry x="385" y="663" width="60" height="83" as="geometry" />
        </mxCell>
        <mxCell id="8sGk-XpS2pYoh8tglQyW-17" value="Redis&lt;br&gt;Slave2" style="shape=cylinder3;whiteSpace=wrap;html=1;boundedLbl=1;backgroundOutline=1;size=15;movable=1;resizable=1;rotatable=1;deletable=1;editable=1;connectable=1;locked=0;" vertex="1" parent="1">
          <mxGeometry x="557" y="665" width="60" height="83" as="geometry" />
        </mxCell>
        <mxCell id="8sGk-XpS2pYoh8tglQyW-18" value="Cloud (AWS/Azure/GCP)" style="text;html=1;align=center;verticalAlign=middle;resizable=0;points=[];autosize=1;strokeColor=none;fillColor=none;" vertex="1" parent="1">
          <mxGeometry x="-354" y="592" width="152" height="26" as="geometry" />
        </mxCell>
        <mxCell id="8sGk-XpS2pYoh8tglQyW-19" value="PgPool2" style="rounded=0;whiteSpace=wrap;html=1;dashed=0;movable=1;resizable=1;rotatable=1;deletable=1;editable=1;connectable=1;locked=0;" vertex="1" parent="1">
          <mxGeometry x="405" y="808.5" width="143" height="128" as="geometry" />
        </mxCell>
        <mxCell id="8sGk-XpS2pYoh8tglQyW-20" value="Postgres&lt;br&gt;Slave1" style="shape=cylinder3;whiteSpace=wrap;html=1;boundedLbl=1;backgroundOutline=1;size=15;movable=1;resizable=1;rotatable=1;deletable=1;editable=1;connectable=1;locked=0;" vertex="1" parent="1">
          <mxGeometry x="741" y="824" width="60" height="87" as="geometry" />
        </mxCell>
        <mxCell id="8sGk-XpS2pYoh8tglQyW-21" value="Postgres&lt;br&gt;Master" style="shape=cylinder3;whiteSpace=wrap;html=1;boundedLbl=1;backgroundOutline=1;size=15;movable=1;resizable=1;rotatable=1;deletable=1;editable=1;connectable=1;locked=0;" vertex="1" parent="1">
          <mxGeometry x="741" y="696" width="60" height="87" as="geometry" />
        </mxCell>
        <mxCell id="8sGk-XpS2pYoh8tglQyW-22" value="Postgres&lt;br&gt;Slave2" style="shape=cylinder3;whiteSpace=wrap;html=1;boundedLbl=1;backgroundOutline=1;size=15;movable=1;resizable=1;rotatable=1;deletable=1;editable=1;connectable=1;locked=0;" vertex="1" parent="1">
          <mxGeometry x="743" y="952" width="60" height="87" as="geometry" />
        </mxCell>
        <mxCell id="8sGk-XpS2pYoh8tglQyW-23" value="" style="endArrow=classic;html=1;rounded=0;exitX=1;exitY=0.5;exitDx=0;exitDy=0;entryX=0;entryY=0.612;entryDx=0;entryDy=0;entryPerimeter=0;dashed=1;" edge="1" parent="1" source="8sGk-XpS2pYoh8tglQyW-11" target="8sGk-XpS2pYoh8tglQyW-7">
          <mxGeometry width="50" height="50" relative="1" as="geometry">
            <mxPoint x="272" y="949" as="sourcePoint" />
            <mxPoint x="322" y="899" as="targetPoint" />
          </mxGeometry>
        </mxCell>
        <mxCell id="8sGk-XpS2pYoh8tglQyW-24" value="" style="endArrow=none;dashed=1;html=1;dashPattern=1 3;strokeWidth=2;rounded=0;" edge="1" parent="1">
          <mxGeometry width="50" height="50" relative="1" as="geometry">
            <mxPoint x="249" y="946" as="sourcePoint" />
            <mxPoint x="249" y="717" as="targetPoint" />
          </mxGeometry>
        </mxCell>
        <mxCell id="8sGk-XpS2pYoh8tglQyW-25" value="" style="endArrow=classic;html=1;rounded=0;dashed=1;" edge="1" parent="1">
          <mxGeometry width="50" height="50" relative="1" as="geometry">
            <mxPoint x="198" y="794" as="sourcePoint" />
            <mxPoint x="246" y="794" as="targetPoint" />
          </mxGeometry>
        </mxCell>
        <mxCell id="8sGk-XpS2pYoh8tglQyW-26" value="" style="endArrow=classic;html=1;rounded=0;exitX=1;exitY=0.5;exitDx=0;exitDy=0;dashed=1;" edge="1" parent="1" source="8sGk-XpS2pYoh8tglQyW-13">
          <mxGeometry width="50" height="50" relative="1" as="geometry">
            <mxPoint x="217" y="738" as="sourcePoint" />
            <mxPoint x="247" y="866" as="targetPoint" />
          </mxGeometry>
        </mxCell>
        <mxCell id="8sGk-XpS2pYoh8tglQyW-27" value="" style="endArrow=classic;html=1;rounded=0;exitX=1;exitY=0.5;exitDx=0;exitDy=0;dashed=1;" edge="1" parent="1" source="8sGk-XpS2pYoh8tglQyW-14">
          <mxGeometry width="50" height="50" relative="1" as="geometry">
            <mxPoint x="227" y="748" as="sourcePoint" />
            <mxPoint x="248" y="941" as="targetPoint" />
          </mxGeometry>
        </mxCell>
        <mxCell id="8sGk-XpS2pYoh8tglQyW-28" value="Redis&amp;nbsp;&amp;nbsp;Sentinel" style="text;html=1;align=center;verticalAlign=middle;resizable=0;points=[];autosize=1;strokeColor=none;fillColor=none;" vertex="1" parent="1">
          <mxGeometry x="365.5" y="622.5" width="99" height="26" as="geometry" />
        </mxCell>
        <mxCell id="8sGk-XpS2pYoh8tglQyW-29" value="" style="endArrow=classic;startArrow=classic;html=1;rounded=0;entryX=0;entryY=0.5;entryDx=0;entryDy=0;movable=1;resizable=1;rotatable=1;deletable=1;editable=1;connectable=1;locked=0;dashed=1;exitX=1;exitY=0.5;exitDx=0;exitDy=0;" edge="1" parent="1" source="8sGk-XpS2pYoh8tglQyW-3" target="8sGk-XpS2pYoh8tglQyW-5">
          <mxGeometry width="50" height="50" relative="1" as="geometry">
            <mxPoint x="-47" y="685" as="sourcePoint" />
            <mxPoint x="95" y="605" as="targetPoint" />
          </mxGeometry>
        </mxCell>
        <mxCell id="8sGk-XpS2pYoh8tglQyW-30" value="" style="endArrow=classic;startArrow=classic;html=1;rounded=0;entryX=0.005;entryY=0.427;entryDx=0;entryDy=0;movable=1;resizable=1;rotatable=1;deletable=1;editable=1;connectable=1;locked=0;dashed=1;exitX=1;exitY=0.25;exitDx=0;exitDy=0;entryPerimeter=0;" edge="1" parent="1" source="8sGk-XpS2pYoh8tglQyW-19" target="8sGk-XpS2pYoh8tglQyW-6">
          <mxGeometry width="50" height="50" relative="1" as="geometry">
            <mxPoint x="565" y="936.5" as="sourcePoint" />
            <mxPoint x="678" y="936.5" as="targetPoint" />
          </mxGeometry>
        </mxCell>
        <mxCell id="8sGk-XpS2pYoh8tglQyW-31" value="" style="endArrow=classic;startArrow=classic;html=1;rounded=0;entryX=0;entryY=0.5;entryDx=0;entryDy=0;movable=1;resizable=1;rotatable=1;deletable=1;editable=1;connectable=1;locked=0;dashed=1;exitX=1;exitY=0.5;exitDx=0;exitDy=0;" edge="1" parent="1" source="8sGk-XpS2pYoh8tglQyW-5" target="8sGk-XpS2pYoh8tglQyW-19">
          <mxGeometry width="50" height="50" relative="1" as="geometry">
            <mxPoint x="318" y="915" as="sourcePoint" />
            <mxPoint x="431" y="915" as="targetPoint" />
          </mxGeometry>
        </mxCell>
        <mxCell id="8sGk-XpS2pYoh8tglQyW-32" value="" style="endArrow=classic;startArrow=classic;html=1;rounded=0;entryX=0;entryY=0.577;entryDx=0;entryDy=0;movable=1;resizable=1;rotatable=1;deletable=1;editable=1;connectable=1;locked=0;dashed=1;exitX=1;exitY=0.75;exitDx=0;exitDy=0;entryPerimeter=0;" edge="1" parent="1" source="8sGk-XpS2pYoh8tglQyW-19" target="8sGk-XpS2pYoh8tglQyW-6">
          <mxGeometry width="50" height="50" relative="1" as="geometry">
            <mxPoint x="610.5" y="929" as="sourcePoint" />
            <mxPoint x="723.5" y="929" as="targetPoint" />
          </mxGeometry>
        </mxCell>
        <mxCell id="8sGk-XpS2pYoh8tglQyW-33" value="" style="endArrow=classic;startArrow=classic;html=1;rounded=0;entryX=0;entryY=0.5;entryDx=0;entryDy=0;movable=1;resizable=1;rotatable=1;deletable=1;editable=1;connectable=1;locked=0;dashed=1;exitX=1;exitY=0.5;exitDx=0;exitDy=0;" edge="1" parent="1" source="8sGk-XpS2pYoh8tglQyW-19" target="8sGk-XpS2pYoh8tglQyW-6">
          <mxGeometry width="50" height="50" relative="1" as="geometry">
            <mxPoint x="602" y="959" as="sourcePoint" />
            <mxPoint x="715" y="959" as="targetPoint" />
          </mxGeometry>
        </mxCell>
        <mxCell id="8sGk-XpS2pYoh8tglQyW-34" value="" style="rounded=0;whiteSpace=wrap;html=1;" vertex="1" parent="1">
          <mxGeometry x="-374" y="787.25" width="6" height="157.5" as="geometry" />
        </mxCell>
        <mxCell id="8sGk-XpS2pYoh8tglQyW-35" value="" style="endArrow=classic;html=1;rounded=0;dashed=1;entryX=0;entryY=0.25;entryDx=0;entryDy=0;" edge="1" parent="1" target="8sGk-XpS2pYoh8tglQyW-34">
          <mxGeometry width="50" height="50" relative="1" as="geometry">
            <mxPoint x="-551" y="827" as="sourcePoint" />
            <mxPoint x="-547" y="667" as="targetPoint" />
          </mxGeometry>
        </mxCell>
        <mxCell id="8sGk-XpS2pYoh8tglQyW-36" value="" style="endArrow=classic;html=1;rounded=0;dashed=1;entryX=0;entryY=0.5;entryDx=0;entryDy=0;" edge="1" parent="1" target="8sGk-XpS2pYoh8tglQyW-34">
          <mxGeometry width="50" height="50" relative="1" as="geometry">
            <mxPoint x="-552" y="866" as="sourcePoint" />
            <mxPoint x="-537" y="677" as="targetPoint" />
          </mxGeometry>
        </mxCell>
        <mxCell id="8sGk-XpS2pYoh8tglQyW-37" value="" style="endArrow=classic;html=1;rounded=0;dashed=1;entryX=0;entryY=0.75;entryDx=0;entryDy=0;" edge="1" parent="1" target="8sGk-XpS2pYoh8tglQyW-34">
          <mxGeometry width="50" height="50" relative="1" as="geometry">
            <mxPoint x="-549" y="905" as="sourcePoint" />
            <mxPoint x="-527" y="687" as="targetPoint" />
          </mxGeometry>
        </mxCell>
        <mxCell id="8sGk-XpS2pYoh8tglQyW-38" value="N Request" style="text;html=1;align=center;verticalAlign=middle;resizable=0;points=[];autosize=1;strokeColor=none;fillColor=none;" vertex="1" parent="1">
          <mxGeometry x="-552" y="796" width="75" height="26" as="geometry" />
        </mxCell>
      </root>
    </mxGraphModel>
  </diagram>
</mxfile>
